#File written by RizomUV 2022.0.11.g5424fda. Compilation :Nov 24 2021,04:16:21
mtllib kistka:mtl
#begin vertices
v 93.2152 68.0248 0
v 90.6612 61.6669 0
v 99.5794 61.6669 5.7013
v 99.5794 71.5026 3.4541
v 114.5565 64.2891 0
v 105.7471 71.5026 3.4541
v 105.7471 79.4914 3.4541
v 99.5794 79.4914 3.4541
v 114.1256 86.4437 0
v 99.5794 87.6338 3.9189
v 90.871 87.6338 0
v 93.8054 81.339 0
v 127.4155 67.0367 0
v 127.4155 73.0182 3.4541
v 127.4155 77.8765 3.4541
v 127.4155 82.8283 0
v 153.2281 66.7682 0
v 179.0406 65.0398 0
v 179.0406 72.8752 3.4541
v 153.2281 72.9467 3.4541
v 179.0406 78.0535 3.4541
v 153.2281 77.965 3.4541
v 179.0406 83.3313 0
v 153.2281 84.2465 0
v 312.483 72.7322 3.4541
v 312.483 65.9628 0
v 322.1609 60.6912 0
v 330.5283 71.3136 3.4541
v 312.483 78.2304 3.4541
v 330.5283 80.0378 3.4541
v 312.483 83.8343 0
v 323.7632 89.1077 0
v 337.486 60.5725 4.111
v 337.486 71.3136 3.4541
v 337.486 80.0378 3.4541
v 337.486 88.9297 5.8079
v 344.7109 82.6489 0
v 348.4496 88.9297 0
v 348.5502 60.5725 0
v 345.8798 68.4058 0
v 104.9864 93.9086 0
v 99.4164 96.4874 0
v 93.2677 94.0473 0
v 94.0303 55.0904 0
v 99.5794 51.3952 0
v 105.5298 52.6994 0
v 337.486 99.7519 0
v 332.9614 97.0221 0
v 345.2451 98.565 0
v 331.2404 53.9238 0
v 337.486 50.3632 0
v 345.7017 53.271 0
v 286.6705 64.7873 0
v 286.6705 72.8037 3.4541
v 205.9481 65.3377 0
v 232.8555 65.0463 0
v 232.8555 72.8394 3.4541
v 205.9481 72.8573 3.4541
v 286.6705 78.1419 3.4541
v 232.8555 78.0977 3.4541
v 205.9481 78.0756 3.4541
v 286.6705 84.4314 0
v 232.8555 83.8813 0
v 205.9481 84.6407 0
v 93.2152 68.0248 -7.612
v 99.5794 71.5026 -10.5105
v 99.5794 61.6669 -12.5678
v 90.6612 61.6669 -7.612
v 105.7471 71.5026 -10.5105
v 114.5565 64.2891 -7.612
v 99.5794 79.4914 -10.5105
v 105.7471 79.4914 -10.5105
v 99.5794 87.6338 -11.7692
v 114.1256 86.4437 -7.612
v 93.8054 81.339 -7.612
v 90.871 87.6338 -7.612
v 127.4155 73.0182 -10.5105
v 127.4155 67.0367 -7.612
v 127.4155 77.8765 -10.5105
v 127.4155 82.8283 -7.612
v 153.2281 66.7682 -7.612
v 153.2281 72.9467 -10.5105
v 179.0406 72.8752 -10.5105
v 179.0406 65.0398 -7.612
v 153.2281 77.965 -10.5105
v 179.0406 78.0535 -10.5105
v 153.2281 84.2465 -7.612
v 179.0406 83.3313 -7.612
v 312.483 72.7322 -10.5105
v 330.5283 71.3136 -10.5105
v 322.1609 60.6912 -7.612
v 312.483 65.9628 -7.612
v 312.483 78.2304 -10.5105
v 330.5283 80.0378 -10.5105
v 312.483 83.8343 -7.612
v 323.7632 89.1077 -7.612
v 337.486 71.3136 -10.5105
v 337.486 60.5725 -12.6999
v 337.486 80.0378 -10.5105
v 337.486 88.9297 -12.4773
v 348.4496 88.9297 -7.612
v 344.7109 82.6489 -7.612
v 345.8798 68.4058 -7.612
v 348.5502 60.5725 -7.612
v 99.4164 96.4874 -7.612
v 104.9864 93.9086 -7.612
v 93.2677 94.0473 -7.612
v 99.5794 51.3952 -7.612
v 94.0303 55.0904 -7.612
v 105.5298 52.6994 -7.612
v 332.9614 97.0221 -7.612
v 337.486 99.7519 -7.612
v 345.2451 98.565 -7.612
v 337.486 50.3632 -7.612
v 331.2404 53.9238 -7.612
v 345.7017 53.271 -7.612
v 286.6705 64.7873 -7.612
v 286.6705 72.8037 -10.5105
v 205.9481 72.8573 -10.5105
v 232.8555 72.8394 -10.5105
v 232.8555 65.0463 -7.612
v 205.9481 65.3377 -7.612
v 286.6705 78.1419 -10.5105
v 205.9481 78.0756 -10.5105
v 232.8555 78.0977 -10.5105
v 286.6705 84.4314 -7.612
v 205.9481 84.6407 -7.612
v 232.8555 83.8813 -7.612
v 259.763 65.9334 0
v 259.763 65.9334 -7.612
v 259.763 72.8216 3.4541
v 259.763 78.1198 3.4541
v 259.763 85.63 0
v 259.763 72.8216 -10.5105
v 259.763 78.1198 -10.5105
v 259.763 85.63 -7.612
#end vertices

#begin 226 textures vertices 
vt 0.06965031 0.4093588 0
vt 0.05941428 0.4135047 0
vt 0.05992723 0.3973307 0
vt 0.07492675 0.3973615 0
vt 0.06171253 0.3731604 0
vt 0.07455713 0.38726 0
vt 0.08710596 0.3871166 0
vt 0.08712541 0.3970193 0
vt 0.09910559 0.3735919 0
vt 0.0995246 0.3969213 0
vt 0.1006271 0.4115474 0
vt 0.09015408 0.4078272 0
vt 0.06554775 0.3530357 0
vt 0.07639989 0.3529812 0
vt 0.08403185 0.3528944 0
vt 0.09350162 0.3527053 0
vt 0.06470246 0.3126478 0
vt 0.06175528 0.2722164 0
vt 0.07517388 0.2720454 0
vt 0.07579179 0.3125012 0
vt 0.08328846 0.2719429 0
vt 0.08365413 0.3124026 0
vt 0.09317332 0.2718171 0
vt 0.09488906 0.3122554 0
vt 0.07218738 0.06287599 0
vt 0.06026156 0.06315206 0
vt 0.05193863 0.04804466 0
vt 0.06924541 0.03444515 0
vt 0.08083014 0.06272811 0
vt 0.08293714 0.0341451 0
vt 0.09120423 0.06274695 0
vt 0.09861466 0.04482811 0
vt 0.05235648 0.02338957 0
vt 0.06900735 0.02340421 0
vt 0.08236382 0.02280931 0
vt 0.09608865 0.02288914 0
vt 0.08638314 0.009698035 0
vt 0.09667162 0.00390625 0
vt 0.05131084 0.005297927 0
vt 0.0641321 0.008810303 0
vt 0.1106553 0.3883076 0
vt 0.1145833 0.3971841 0
vt 0.1106974 0.4071274 0
vt 0.04865717 0.4080938 0
vt 0.04234824 0.3991833 0
vt 0.04360995 0.3890788 0
vt 0.1145833 0.02122221 0
vt 0.111094 0.02933281 0
vt 0.1121692 0.008847598 0
vt 0.0410458 0.03362464 0
vt 0.03528028 0.02371042 0
vt 0.03979918 0.01041027 0
vt 0.05918304 0.1035601 0
vt 0.07286325 0.1033623 0
vt 0.06164099 0.2300445 0
vt 0.06067157 0.1878846 0
vt 0.07403043 0.1877069 0
vt 0.0746094 0.2298763 0
vt 0.08122527 0.1032485 0
vt 0.08227078 0.1875991 0
vt 0.08278748 0.2297709 0
vt 0.09246284 0.1031035 0
vt 0.09282772 0.1874603 0
vt 0.09441326 0.2296161 0
vt 0.1599359 0.008098005 0
vt 0.1652205 0.0195989 0
vt 0.1501119 0.01961302 0
vt 0.1497733 0.00390625 0
vt 0.1649221 0.02962505 0
vt 0.1524602 0.0436432 0
vt 0.1774647 0.01981794 0
vt 0.1774584 0.02976606 0
vt 0.1898633 0.02001247 0
vt 0.1891552 0.04328744 0
vt 0.1803156 0.009262927 0
vt 0.1908366 0.00536702 0
vt 0.166824 0.06387838 0
vt 0.1563862 0.06380934 0
vt 0.1744549 0.06396676 0
vt 0.1834581 0.06413141 0
vt 0.1555458 0.1042156 0
vt 0.1662379 0.10435 0
vt 0.1656414 0.1448022 0
vt 0.1525504 0.1446412 0
vt 0.1741005 0.1044446 0
vt 0.1737558 0.1449015 0
vt 0.1849418 0.1045795 0
vt 0.1831922 0.1450132 0
vt 0.162725 0.3539426 0
vt 0.159908 0.3823911 0
vt 0.1427646 0.3687093 0
vt 0.1511642 0.353691 0
vt 0.1713648 0.354087 0
vt 0.1735911 0.382654 0
vt 0.1812955 0.3541043 0
vt 0.18889 0.3720274 0
vt 0.1597448 0.3934905 0
vt 0.1429823 0.3935392 0
vt 0.1731452 0.3938924 0
vt 0.1869259 0.3938782 0
vt 0.1872864 0.4123883 0
vt 0.177133 0.4065281 0
vt 0.1549869 0.4081857 0
vt 0.1419262 0.4118391 0
vt 0.2050153 0.01981475 0
vt 0.2009469 0.02866636 0
vt 0.2010402 0.009767641 0
vt 0.1328577 0.01811922 0
vt 0.1390901 0.009264699 0
vt 0.1342758 0.02808992 0
vt 0.2013397 0.3872884 0
vt 0.2050153 0.3951716 0
vt 0.2026985 0.4074835 0
vt 0.1254806 0.393065 0
vt 0.1314966 0.3831314 0
vt 0.1301782 0.406632 0
vt 0.1500131 0.3132871 0
vt 0.1633729 0.3134696 0
vt 0.1650875 0.1869683 0
vt 0.1645288 0.2291343 0
vt 0.1514992 0.2289669 0
vt 0.1524589 0.1868097 0
vt 0.1717357 0.3135804 0
vt 0.1732646 0.1870707 0
vt 0.1727691 0.2292398 0
vt 0.1825819 0.3137144 0
vt 0.1845104 0.1872091 0
vt 0.1829072 0.2293617 0
vt 0.009315652 0.8144021 0
vt 0.02123666 0.8144021 0
vt 0.07345164 0.1455359 0
vt 0.0817545 0.1454261 0
vt 0.09470846 0.1452474 0
vt 0.1639518 0.2713008 0
vt 0.172254 0.2714093 0
vt 0.1848686 0.2715701 0
vt 0.00390625 0.5097743 0
vt 0.009315652 0.6474413 0
vt 0.06137543 0.1457004 0
vt 0.009315652 0.5211322 0
vt 0.009315652 0.5318625 0
vt 0.009315652 0.6070145 0
vt 0.009315652 0.1986385 0
vt 0.009315652 0.5864217 0
vt 0.009315652 0.4061474 0
vt 0.009315652 0.3656618 0
vt 0.009315652 0.4558099 0
vt 0.009315652 0.4661698 0
vt 0.009315652 0.4768923 0
vt 0.009315652 0.4877689 0
vt 0.00390625 0.4972632 0
vt 0.009315652 0.4277169 0
vt 0.009315652 0.4461973 0
vt 0.009315652 0.5434347 0
vt 0.009315652 0.5538756 0
vt 0.009315652 0.5634156 0
vt 0.009315652 0.6879563 0
vt 0.009315652 0.7300982 0
vt 0.009315652 0.2830227 0
vt 0.009315652 0.3252119 0
vt 0.009315652 0.7722399 0
vt 0.009315652 0.2408668 0
vt 0.009315652 0.1564574 0
vt 0.009315652 0.897046 0
vt 0.009315652 0.914305 0
vt 0.009315652 0.8565796 0
vt 0.009315652 0.1160221 0
vt 0.009315652 0.0965213 0
vt 0.00390625 0.01756906 0
vt 0.009315652 0.02960009 0
vt 0.009315652 0.0410471 0
vt 0.009315652 0.05694941 0
vt 0.009315652 0.06924214 0
vt 0.009315652 0.07751778 0
vt 0.00390625 0.9960938 0
vt 0.009315652 0.9821819 0
vt 0.009315652 0.9320395 0
vt 0.009315652 0.9432984 0
vt 0.009315652 0.956947 0
vt 0.009315652 0.9692211 0
vt 0.02123666 0.5538756 0
vt 0.02123666 0.5318625 0
vt 0.02123666 0.5211322 0
vt 0.1522414 0.2711485 0
vt 0.02577595 0.5097743 0
vt 0.02123666 0.5434347 0
vt 0.02123666 0.6070145 0
vt 0.02123666 0.5864217 0
vt 0.02123666 0.5634156 0
vt 0.02123666 0.6474413 0
vt 0.02123666 0.6879563 0
vt 0.02123666 0.7300982 0
vt 0.02123666 0.7722399 0
vt 0.02123666 0.8565796 0
vt 0.02123666 0.897046 0
vt 0.02123666 0.914305 0
vt 0.02123666 0.9320395 0
vt 0.02123666 0.9432984 0
vt 0.02123666 0.956947 0
vt 0.02123666 0.9692211 0
vt 0.02123666 0.9821819 0
vt 0.02577595 0.00390625 0
vt 0.02577595 0.9960937 0
vt 0.02123666 0.07751778 0
vt 0.00390625 0.00390625 0
vt 0.02577595 0.01756906 0
vt 0.02123666 0.02960009 0
vt 0.02123666 0.0410471 0
vt 0.02123666 0.05694941 0
vt 0.02123666 0.06924214 0
vt 0.02123666 0.0965213 0
vt 0.02123666 0.1160221 0
vt 0.02123666 0.1564574 0
vt 0.02123666 0.1986385 0
vt 0.02123666 0.2408668 0
vt 0.02123666 0.2830227 0
vt 0.02123666 0.3252119 0
vt 0.02123666 0.3656618 0
vt 0.02123666 0.4061474 0
vt 0.02123666 0.4277169 0
vt 0.02123666 0.4461973 0
vt 0.02123666 0.4558099 0
vt 0.02123666 0.4661698 0
vt 0.02123666 0.4768923 0
vt 0.02123666 0.4877689 0
vt 0.02577595 0.4972632 0
#end 226 textures vertices 

#begin 136 normals 
vn -0.7354 0.5678 0.3698
vn -0.9003 -0.039 0.4334
vn -0.0823 -0.1451 0.986
vn -0.5347 0.3012 0.7895
vn 0.4238 -0.6415 0.6394
vn 0.0037 -0.2222 0.975
vn 0.0041 0.2294 0.9733
vn -0.5051 -0.2256 0.8331
vn 0.3666 0.7031 0.6093
vn -0.0673 0.1756 0.9822
vn -0.8714 -0.0328 0.4894
vn -0.6675 -0.6553 0.3536
vn 0.0876 -0.8529 0.5147
vn 0.0083 -0.2532 0.9674
vn 0.0102 0.293 0.9561
vn 0.0955 0.8712 0.4815
vn -0.0334 -0.8596 0.5098
vn -0.0233 -0.8414 0.54
vn -0.0004 -0.2062 0.9785
vn -0.0007 -0.2521 0.9677
vn -0.0006 0.2859 0.9583
vn -0.0009 0.2487 0.9686
vn -0.0058 0.8767 0.481
vn -0.0083 0.8644 0.5027
vn -0.0091 -0.2284 0.9735
vn -0.199 -0.8048 0.5592
vn -0.4472 -0.6517 0.6126
vn -0.0037 -0.1576 0.9875
vn -0.0133 0.2648 0.9642
vn -0.0057 0.1826 0.9832
vn -0.1863 0.8372 0.5141
vn -0.4746 0.6508 0.5926
vn 0.044 -0.1542 0.9871
vn 0.481 0.2532 0.8394
vn 0.495 -0.3371 0.8008
vn 0.04 0.1052 0.9937
vn 0.6357 -0.671 0.3818
vn 0.8819 -0.0909 0.4625
vn 0.8547 -0.0179 0.5188
vn 0.6774 0.5921 0.4366
vn 0.389 0.6215 0.68
vn 0.0226 0.8711 0.4906
vn -0.5569 0.5457 0.6261
vn -0.5642 -0.5033 0.6545
vn -0.1566 -0.8756 0.457
vn 0.4106 -0.6514 0.6381
vn -0.1645 0.8685 0.4675
vn -0.4252 0.5872 0.6887
vn 0.5127 0.6078 0.6064
vn -0.3944 -0.6028 0.6936
vn -0.0737 -0.8631 0.4996
vn 0.5435 -0.5611 0.6243
vn 0.0012 -0.8399 0.5427
vn -0.0003 -0.2019 0.9794
vn 0.0001 -0.8407 0.5414
vn 0.0093 -0.8404 0.5419
vn -0.0001 -0.2071 0.9783
vn -0.0001 -0.2136 0.9769
vn -0.0005 0.2483 0.9687
vn -0.0002 0.2659 0.964
vn -0.0002 0.2398 0.9708
vn 0.0291 0.8593 0.5106
vn -0.016 0.8659 0.4999
vn -0.0087 0.8593 0.5114
vn -0.7217 0.5605 -0.4063
vn -0.5244 0.3041 -0.7953
vn -0.0765 -0.1282 -0.9888
vn -0.8892 -0.0387 -0.4559
vn 0.0031 -0.1905 -0.9817
vn 0.413 -0.6234 -0.664
vn -0.4906 -0.2857 -0.8232
vn 0.0035 0.197 -0.9804
vn -0.0712 0.1403 -0.9875
vn 0.3701 0.6842 -0.6284
vn -0.6555 -0.6467 -0.39
vn -0.8759 -0.0329 -0.4814
vn 0.0072 -0.2188 -0.9758
vn 0.0854 -0.8325 -0.5475
vn 0.0089 0.2556 -0.9667
vn 0.0931 0.8496 -0.5192
vn -0.0327 -0.8406 -0.5406
vn -0.0006 -0.2176 -0.976
vn -0.0003 -0.1763 -0.9843
vn -0.0229 -0.8249 -0.5648
vn -0.0007 0.2145 -0.9767
vn -0.0005 0.2487 -0.9686
vn -0.0082 0.8466 -0.5321
vn -0.0057 0.857 -0.5153
vn -0.0078 -0.1962 -0.9805
vn -0.0031 -0.1337 -0.991
vn -0.4613 -0.6374 -0.6172
vn -0.1929 -0.7823 -0.5923
vn -0.0115 0.2295 -0.9732
vn -0.0048 0.1555 -0.9878
vn -0.181 0.8147 -0.5509
vn -0.4606 0.6386 -0.6165
vn 0.4707 0.331 -0.8179
vn 0.0508 -0.122 -0.9912
vn 0.4829 -0.3292 -0.8114
vn 0.0363 0.0942 -0.9949
vn 0.8686 -0.0899 -0.4872
vn 0.6228 -0.6617 -0.4174
vn 0.6638 0.5862 -0.4645
vn 0.8705 -0.0181 -0.4918
vn 0.0226 0.8755 -0.4827
vn 0.389 0.6215 -0.68
vn -0.5568 0.5457 -0.6262
vn -0.1551 -0.8647 -0.4778
vn -0.5642 -0.5033 -0.6545
vn 0.4106 -0.6514 -0.638
vn -0.4252 0.5872 -0.6887
vn -0.1624 0.8545 -0.4935
vn 0.5127 0.6078 -0.6064
vn -0.0747 -0.8787 -0.4716
vn -0.3943 -0.6028 -0.6936
vn 0.5435 -0.5611 -0.6243
vn 0.0012 -0.8237 -0.567
vn -0.0003 -0.1725 -0.985
vn -0.0001 -0.1829 -0.9831
vn -0.0001 -0.1771 -0.9842
vn 0.0091 -0.8236 -0.567
vn 0.0001 -0.8232 -0.5677
vn -0.0005 0.2141 -0.9768
vn -0.0002 0.2064 -0.9785
vn -0.0002 0.2302 -0.9731
vn 0.0285 0.8407 -0.5408
vn -0.0085 0.8417 -0.5399
vn -0.0157 0.8463 -0.5324
vn -0.0041 -0.8474 0.5309
vn -0.004 -0.8288 -0.5595
vn -0.0002 -0.2303 0.9731
vn -0.0002 0.2139 0.9769
vn -0.0086 0.8473 0.5311
vn -0.0001 -0.1978 -0.9802
vn -0.0002 0.1831 -0.9831
vn -0.0084 0.8307 -0.5567
#end 136 normals 

#begin 134 faces
o Plane001
usemtl wire_145028177
g Plane001
s 1
f 1/1/1 2/2/2 3/3/3 4/4/4 
f 4/4/4 3/3/3 5/5/5 6/6/6 
s off
f 4/4/4 6/6/6 7/7/7 8/8/8 
f 8/8/8 7/7/7 9/9/9 10/10/10 
f 8/8/8 10/10/10 11/11/11 12/12/12 
f 6/6/6 5/5/5 13/13/13 14/14/14 
f 7/7/7 6/6/6 14/14/14 15/15/15 
f 9/9/9 7/7/7 15/15/15 16/16/16 
f 17/17/17 18/18/18 19/19/19 20/20/20 
f 20/20/20 19/19/19 21/21/21 22/22/22 
f 22/22/22 21/21/21 23/23/23 24/24/24 
f 25/25/25 26/26/26 27/27/27 28/28/28 
f 29/29/29 25/25/25 28/28/28 30/30/30 
f 31/31/31 29/29/29 30/30/30 32/32/32 
f 28/28/28 27/27/27 33/33/33 34/34/34 
f 30/30/30 28/28/28 34/34/34 35/35/35 
f 32/32/32 30/30/30 35/35/35 36/36/36 
f 36/36/36 35/35/35 37/37/37 38/38/38 
f 34/34/34 33/33/33 39/39/39 40/40/40 
f 10/10/10 9/9/9 41/41/41 42/42/42 
f 11/11/11 10/10/10 42/42/42 43/43/43 
f 3/3/3 2/2/2 44/44/44 45/45/45 
f 5/5/5 3/3/3 45/45/45 46/46/46 
f 32/32/32 36/36/36 47/47/47 48/48/48 
f 36/36/36 38/38/38 49/49/49 47/47/47 
f 33/33/33 27/27/27 50/50/50 51/51/51 
f 39/39/39 33/33/33 51/51/51 52/52/52 
f 53/53/53 26/26/26 25/25/25 54/54/54 
f 55/55/55 56/56/56 57/57/57 58/58/58 
f 20/20/20 14/14/14 13/13/13 17/17/17 
f 54/54/54 25/25/25 29/29/29 59/59/59 
f 58/58/58 57/57/57 60/60/60 61/61/61 
f 22/22/22 15/15/15 14/14/14 20/20/20 
f 59/59/59 29/29/29 31/31/31 62/62/62 
f 61/61/61 60/60/60 63/63/63 64/64/64 
f 24/24/24 16/16/16 15/15/15 22/22/22 
s 1
f 65/65/65 66/66/66 67/67/67 68/68/68 
f 66/66/66 69/69/69 70/70/70 67/67/67 
s off
f 66/66/66 71/71/71 72/72/72 69/69/69 
f 71/71/71 73/73/73 74/74/74 72/72/72 
f 71/71/71 75/75/75 76/76/76 73/73/73 
f 69/69/69 77/77/77 78/78/78 70/70/70 
f 72/72/72 79/79/79 77/77/77 69/69/69 
f 74/74/74 80/80/80 79/79/79 72/72/72 
f 81/81/81 82/82/82 83/83/83 84/84/84 
f 82/82/82 85/85/85 86/86/86 83/83/83 
f 85/85/85 87/87/87 88/88/88 86/86/86 
f 89/89/89 90/90/90 91/91/91 92/92/92 
f 93/93/93 94/94/94 90/90/90 89/89/89 
f 95/95/95 96/96/96 94/94/94 93/93/93 
f 90/90/90 97/97/97 98/98/98 91/91/91 
f 94/94/94 99/99/99 97/97/97 90/90/90 
f 96/96/96 100/100/100 99/99/99 94/94/94 
f 100/100/100 101/101/101 102/102/102 99/99/99 
f 97/97/97 103/103/103 104/104/104 98/98/98 
f 73/73/73 105/105/105 106/106/106 74/74/74 
f 76/76/76 107/107/107 105/105/105 73/73/73 
f 67/67/67 108/108/108 109/109/109 68/68/68 
f 70/70/70 110/110/110 108/108/108 67/67/67 
f 96/96/96 111/111/111 112/112/112 100/100/100 
f 100/100/100 112/112/112 113/113/113 101/101/101 
f 98/98/98 114/114/114 115/115/115 91/91/91 
f 104/104/104 116/116/116 114/114/114 98/98/98 
f 117/117/117 118/118/118 89/89/89 92/92/92 
f 119/119/119 120/120/120 121/121/121 122/122/122 
f 82/82/82 81/81/81 78/78/78 77/77/77 
f 118/118/118 123/123/123 93/93/93 89/89/89 
f 124/124/124 125/125/125 120/120/120 119/119/119 
f 85/85/85 82/82/82 77/77/77 79/79/79 
f 123/123/123 126/126/126 95/95/95 93/93/93 
f 127/127/127 128/128/128 125/125/125 124/124/124 
f 87/87/87 85/85/85 79/79/79 80/80/80 
s 2
f 39/180/39 52/179/52 116/199/116 104/200/104 
s 4
f 52/179/52 51/178/51 114/198/114 116/199/116 
s 2
f 51/178/51 50/177/50 115/197/115 114/198/114 
f 50/177/50 27/165/27 91/196/91 115/197/115 
f 27/165/27 26/164/26 92/195/92 91/196/91 
f 26/164/26 53/166/53 117/194/117 92/195/92 
f 129/129/129 56/161/56 121/193/121 130/130/130 
f 18/157/18 17/138/17 81/190/81 84/191/84 
f 17/138/17 13/142/13 78/187/78 81/190/81 
f 13/142/13 5/144/5 70/188/70 78/187/78 
f 5/144/5 46/156/46 110/189/110 70/188/70 
f 46/156/46 45/155/45 108/181/108 110/189/110 
s 4
f 45/155/45 44/154/44 109/186/109 108/181/108 
f 44/154/44 2/141/2 68/182/68 109/186/109 
s 2
f 2/141/2 1/140/1 65/183/65 68/182/68 
f 1/140/1 4/137/4 66/185/66 65/183/65 
s 4
f 4/137/4 8/151/8 71/226/71 66/185/66 
s 2
f 8/151/8 12/150/12 75/225/75 71/226/71 
s 4
f 12/150/12 11/149/11 76/224/76 75/225/75 
f 11/149/11 43/148/43 107/223/107 76/224/76 
s 2
f 43/148/43 42/147/42 105/222/105 107/223/107 
s 4
f 42/147/42 41/153/41 106/221/106 105/222/105 
f 41/153/41 9/152/9 74/220/74 106/221/106 
f 9/152/9 16/145/16 80/219/80 74/220/74 
f 16/145/16 24/146/24 87/218/87 80/219/80 
f 24/146/24 23/160/23 88/217/88 87/218/87 
f 64/159/64 63/162/63 128/215/128 127/216/127 
f 62/163/62 31/167/31 95/212/95 126/213/126 
f 31/167/31 32/168/32 96/211/96 95/212/95 
f 32/168/32 48/174/48 111/204/111 96/211/96 
f 48/174/48 47/173/47 112/210/112 111/204/111 
f 47/173/47 49/172/49 113/209/113 112/210/112 
s 2
f 49/172/49 38/171/38 101/208/101 113/209/113 
s 4
f 38/171/38 37/170/37 102/207/102 101/208/101 
f 37/170/37 35/169/35 99/206/99 102/207/102 
s 2
f 35/169/35 34/205/34 97/202/97 99/206/99 
s 4
f 34/175/34 40/176/40 103/201/103 97/203/97 
s 2
f 40/176/40 39/180/39 104/200/104 103/201/103 
s off
f 129/139/129 53/53/53 54/54/54 131/131/131 
f 56/56/56 129/139/129 131/131/131 57/57/57 
f 58/58/58 19/19/19 18/18/18 55/55/55 
f 131/131/131 54/54/54 59/59/59 132/132/132 
f 57/57/57 131/131/131 132/132/132 60/60/60 
f 61/61/61 21/21/21 19/19/19 58/58/58 
f 132/132/132 59/59/59 62/62/62 133/133/133 
f 60/60/60 132/132/132 133/133/133 63/63/63 
f 64/64/64 23/23/23 21/21/21 61/61/61 
f 134/134/134 118/118/118 117/117/117 130/184/130 
f 120/120/120 134/134/134 130/184/130 121/121/121 
f 122/122/122 84/84/84 83/83/83 119/119/119 
f 135/135/135 123/123/123 118/118/118 134/134/134 
f 125/125/125 135/135/135 134/134/134 120/120/120 
f 119/119/119 83/83/83 86/86/86 124/124/124 
f 136/136/136 126/126/126 123/123/123 135/135/135 
f 128/128/128 136/136/136 135/135/135 125/125/125 
f 124/124/124 86/86/86 88/88/88 127/127/127 
s 2
f 55/158/55 18/157/18 84/191/84 122/192/122 
f 56/161/56 55/158/55 122/192/122 121/193/121 
f 130/130/130 117/194/117 53/166/53 129/129/129 
s 4
f 133/143/133 62/163/62 126/213/126 136/214/136 
f 63/162/63 133/143/133 136/214/136 128/215/128 
f 127/216/127 88/217/88 23/160/23 64/159/64 
#end 134 faces

#ZOMPROPERTIES_04{
#ZOMPROPERTIES_04 table {Mesh table {SymPlane table {Point vector3d 0 0 0 Normal vector3d 1 0 0 Threshold double 0.01 
#ZOMPROPERTIES_04 Enabled bool false EdgeID int -1 SymEdgeID int -1 UPos double 0.5 LocalMode bool false } RootGroup C
#ZOMPROPERTIES_04 SubMeshGroup {Children table {Tile_0_0 CSubMeshGroup {Children table {} BBoxUV box3d 0 0 0 0 0 0 BBo
#ZOMPROPERTIES_04 x3D box3d 0 0 0 0 0 0 Area3D double 0 AreaUV double 0.04203 IsRoot bool false TopoStable table {Sele
#ZOMPROPERTIES_04 cted bool false Box box3d 0 1 0 1 0 1 U int 0 V int 0 NU int 0 NV int 0 Tiling vector3d 1 1 1 TileRa
#ZOMPROPERTIES_04 tioMode string "1:1" Pack table {BoxFrameLocked bool false BoxFrameEdit bool false } } IsTile bool t
#ZOMPROPERTIES_04 rue PolyIDs ints { 72 73 74 75 76 77 130 78 129 128 79 80 81 82 83 84 85 86 87 88 89 90 91 92 93 94 
#ZOMPROPERTIES_04 95 96 97 133 98 132 131 99 100 101 102 103 104 105 106 107 109 108 36 57 58 37 41 65 44 121 64 120 1
#ZOMPROPERTIES_04 19 63 47 50 61 62 54 51 52 59 60 49 69 125 126 70 127 46 71 43 39 40 56 38 55 42 68 45 124 67 123 12
#ZOMPROPERTIES_04 2 66 48 53 0 1 5 29 32 35 10 118 34 117 116 33 13 16 17 24 23 15 14 18 26 25 11 27 110 111 28 112 8 
#ZOMPROPERTIES_04 115 31 114 113 30 12 9 7 3 2 4 20 19 6 22 21 } } } BBoxUV box3d 0 0 0 0 0 0 BBox3D box3d 0 0 0 0 0 0
#ZOMPROPERTIES_04  Area3D double 0 AreaUV double 0 IsRoot bool true TopoStable table {Selected bool false Box box3d 0 
#ZOMPROPERTIES_04 1 0 1 0 1 U int 0 V int 0 NU int 1 NV int 1 Tiling vector3d 1 1 1 TileRatioMode string "1:1" Pack ta
#ZOMPROPERTIES_04 ble {Rotate table {Mode int 2 Min double 0 Max double 90 Step double 0 } PaddingSize double 0.007812
#ZOMPROPERTIES_04 5 MarginSize double 0.00390625 Resolution int 256 MapResolution int 2048 Scaling table {TexelDensity
#ZOMPROPERTIES_04  double 1024 Mode int 0 } LayoutScalingMode int 2 MaxMutations int 1 } } IsTile bool false PolyIDs i
#ZOMPROPERTIES_04 nts { } } Maps table {Density table {PrimType string "Polygon" Size int 1 DefaultValue double 1 Scal
#ZOMPROPERTIES_04 eType string "Log" MergeMode string "Average" MinValue double 0.1 MaxValue double 4 Data doubles { r
#ZOMPROPERTIES_04  134 1 } } Pin table {PrimType string "Vertex" Size int 1 DefaultValue double 0 ScaleType string "No
#ZOMPROPERTIES_04 rmalized" MergeMode string "Max" MinValue double 0 MaxValue double 1 Data doubles { r 226 0 } } Prot
#ZOMPROPERTIES_04 ect table {PrimType string "Vertex" Size int 1 DefaultValue double 0 ScaleType string "Normalized" M
#ZOMPROPERTIES_04 ergeMode string "Average" MinValue double -1 MaxValue double 1 Data doubles { r 226 0 } } } } }
#ZOMPROPERTIES_04}


#ZOMSCENE_01{
#ZOMSCENE_01 CScene {Settings table {AxisSystem table {UpVector string "y" } Unit string "cm" } }
#ZOMSCENE_01}

#begin 0 fatal error vertex (that RizomUV cannot handle)
#end 0 fatal error vertex (that RizomUV cannot handle)

#begin 0 error vertex
#end 0 error vertex
