# This file uses centimeters as units for non-parametric coordinates.

mtllib sword only.mtl
g default
v 28.439030 99.562393 32.360329
v 28.773550 99.585037 33.909451
v 29.451010 101.015602 33.743179
v 29.116489 100.992897 32.194061
v 57.612598 145.904404 26.268610
v 57.927971 145.944901 27.683390
v 62.139511 148.341095 26.800541
v 61.824131 148.300598 25.385771
v 45.117180 93.027237 28.855339
v 45.451691 93.049889 30.404461
v 44.774231 91.619370 30.570730
v 44.439709 91.596733 29.021610
v 30.158180 82.289429 31.165569
v 30.913059 82.331841 34.682121
v 28.848110 83.294693 34.465519
v 28.333950 83.253326 32.100090
v 33.249451 94.749512 33.876621
v 36.297291 93.335289 34.265259
v 37.493359 95.877632 33.931782
v 34.451691 97.291878 33.572620
v 35.150749 93.292648 28.872240
v 32.531311 94.708733 30.532280
v 33.733551 97.251091 30.228279
v 36.346821 95.834991 28.538750
v 37.477268 92.256119 30.081900
v 37.972340 92.297409 32.355980
v 32.718540 81.367867 33.657909
v 32.204369 81.326500 31.292480
v 33.477901 94.247139 30.916410
v 35.357059 93.251106 29.922779
v 33.972969 94.288422 33.190491
v 36.083561 93.293404 33.303619
v 34.754700 97.165657 33.006062
v 34.252800 97.124336 30.699289
v 39.213139 94.654922 29.664261
v 39.715038 94.696228 31.971020
v 40.136761 94.461662 32.386360
v 39.418629 94.420883 29.042021
v 38.216389 91.878510 29.346020
v 38.934528 91.919289 32.690361
v 37.343990 95.931419 33.010368
v 36.607342 95.889091 29.580980
v 31.677670 97.292511 33.304230
v 31.343161 97.269859 31.755110
v 32.355141 98.723022 33.137970
v 32.020618 98.700371 31.588850
v 42.110031 93.866707 31.102510
v 41.775520 93.844070 29.553379
v 41.432571 92.436203 31.268770
v 41.098049 92.413551 29.719650
v 29.981850 98.742432 33.657539
v 29.647341 98.719780 32.108421
v 30.659321 100.172897 33.491280
v 30.324800 100.150299 31.942150
v 44.144218 93.459717 30.677500
v 43.809700 93.437073 29.128380
v 43.466751 92.029198 30.843769
v 43.132240 92.006554 29.294640
v 62.572948 143.434998 25.233580
v 62.888321 143.475494 26.648359
vt 0.160420 0.003906
vt 0.165779 0.004082
vt 0.165605 0.009463
vt 0.160247 0.009287
vt 0.779435 0.195663
vt 0.784334 0.195905
vt 0.783923 0.212560
vt 0.779024 0.212318
vt 0.873117 0.205433
vt 0.873071 0.210794
vt 0.867688 0.210745
vt 0.867734 0.205384
vt 0.754341 0.429431
vt 0.766258 0.431883
vt 0.762659 0.438737
vt 0.754638 0.437087
vt 0.634163 0.947104
vt 0.633575 0.935678
vt 0.643137 0.935265
vt 0.643721 0.946662
vt 0.332059 0.790686
vt 0.331423 0.802200
vt 0.321873 0.801621
vt 0.322508 0.790073
vt 0.961829 0.520995
vt 0.969702 0.520973
vt 0.969681 0.562230
vt 0.961492 0.562246
vt 0.973454 0.162352
vt 0.965793 0.162395
vt 0.965400 0.121145
vt 0.973341 0.121099
vt 0.961555 0.471808
vt 0.969744 0.471904
vt 0.969365 0.513159
vt 0.961492 0.513061
vt 0.965719 0.170228
vt 0.973461 0.170211
vt 0.973303 0.211472
vt 0.965400 0.211483
vt 0.143681 0.201845
vt 0.150646 0.205513
vt 0.150696 0.209229
vt 0.140455 0.203839
vt 0.665478 0.246889
vt 0.673460 0.246939
vt 0.675378 0.248401
vt 0.663801 0.248340
vt 0.673567 0.227881
vt 0.665587 0.227841
vt 0.663924 0.226467
vt 0.675501 0.226534
vt 0.157805 0.191908
vt 0.150839 0.188243
vt 0.150633 0.184496
vt 0.160875 0.189886
vt 0.155848 0.199565
vt 0.158789 0.201138
vt 0.663701 0.237355
vt 0.660536 0.237385
vt 0.145494 0.194115
vt 0.142276 0.192448
vt 0.675599 0.237421
vt 0.679237 0.237490
vt 0.143524 0.216616
vt 0.138783 0.214112
vt 0.645611 0.955166
vt 0.640234 0.955420
vt 0.671991 0.256606
vt 0.666629 0.256581
vt 0.325270 0.810594
vt 0.319896 0.810274
vt 0.666841 0.218787
vt 0.672203 0.218822
vt 0.642738 0.923861
vt 0.633177 0.924243
vt 0.638529 0.915940
vt 0.643908 0.915731
vt 0.157951 0.177688
vt 0.162699 0.180177
vt 0.332901 0.779185
vt 0.323354 0.778539
vt 0.322466 0.770198
vt 0.327837 0.770568
vt 0.139979 0.223386
vt 0.135238 0.220882
vt 0.647801 0.962487
vt 0.642424 0.962741
vt 0.671928 0.264247
vt 0.666566 0.264222
vt 0.322990 0.817887
vt 0.317616 0.817567
vt 0.666861 0.211624
vt 0.672223 0.211659
vt 0.640100 0.908952
vt 0.645479 0.908742
vt 0.161301 0.171356
vt 0.166050 0.173846
vt 0.321104 0.763166
vt 0.326475 0.763536
vt 0.137628 0.227861
vt 0.132887 0.225357
vt 0.648770 0.967448
vt 0.643392 0.967703
vt 0.671893 0.269302
vt 0.666532 0.269277
vt 0.321961 0.822837
vt 0.316587 0.822517
vt 0.666882 0.206898
vt 0.672243 0.206933
vt 0.640651 0.904258
vt 0.646030 0.904048
vt 0.163505 0.167176
vt 0.168254 0.169665
vt 0.320694 0.758457
vt 0.326065 0.758827
vt 0.785844 0.003906
vt 0.793828 0.004136
vt 0.790510 0.187668
vt 0.785609 0.187469
vt 0.682992 0.446921
vt 0.692694 0.447061
vt 0.689385 0.644279
vt 0.680079 0.630459
vt 0.777792 0.390281
vt 0.785775 0.390026
vt 0.786592 0.573588
vt 0.781691 0.573801
vt 0.685280 0.004061
vt 0.695035 0.004285
vt 0.691346 0.187812
vt 0.681538 0.201280
vt 0.702395 0.447247
vt 0.699149 0.630780
vt 0.782691 0.229175
vt 0.777792 0.228933
vt 0.675524 0.003906
vt 0.672262 0.187441
vt 0.981116 0.162352
vt 0.981282 0.121100
vt 0.757636 0.422514
vt 0.765658 0.424165
vt 0.981202 0.170289
vt 0.981205 0.211545
vn -0.879986 0.438076 0.183613
vn -0.879986 0.438076 0.183613
vn -0.879986 0.438076 0.183613
vn -0.879986 0.438076 0.183613
vn -0.479826 0.873528 0.081949
vn -0.479826 0.873528 0.081949
vn 0.422292 0.898500 -0.119863
vn 0.422292 0.898500 -0.119863
vn 0.879981 -0.438084 -0.183618
vn 0.879981 -0.438084 -0.183618
vn 0.879981 -0.438084 -0.183618
vn 0.879981 -0.438084 -0.183618
vn -0.425633 -0.898826 0.104632
vn -0.425633 -0.898826 0.104632
vn -0.425898 -0.898694 0.104688
vn -0.425898 -0.898694 0.104688
vn -0.052305 0.148480 0.987531
vn 0.214373 0.021315 0.976519
vn 0.214373 0.021315 0.976519
vn -0.052305 0.148480 0.987531
vn -0.214373 -0.021315 -0.976519
vn -0.487606 0.121598 -0.864555
vn -0.487606 0.121598 -0.864555
vn -0.214373 -0.021315 -0.976519
vn 0.877379 -0.443547 -0.182954
vn 0.877379 -0.443547 -0.182954
vn 0.877379 -0.443547 -0.182954
vn 0.877379 -0.443547 -0.182954
vn -0.209203 -0.010358 -0.977817
vn -0.418574 0.097391 -0.902946
vn -0.418574 0.097391 -0.902946
vn -0.209181 -0.010369 -0.977822
vn -0.882484 0.432749 0.184257
vn -0.882484 0.432749 0.184257
vn -0.882484 0.432749 0.184257
vn -0.882484 0.432749 0.184257
vn -0.018124 0.128340 0.991565
vn 0.212569 0.017524 0.976989
vn 0.212592 0.017512 0.976984
vn -0.018124 0.128340 0.991565
vn -0.464708 -0.878202 0.113173
vn -0.464708 -0.878202 0.113173
vn -0.464708 -0.878202 0.113173
vn -0.464708 -0.878202 0.113173
vn 0.285196 0.955495 -0.075453
vn 0.285196 0.955495 -0.075453
vn 0.285196 0.955495 -0.075453
vn 0.285196 0.955495 -0.075453
vn 0.564483 0.814545 -0.133701
vn 0.564483 0.814545 -0.133701
vn 0.564483 0.814545 -0.133701
vn 0.564483 0.814545 -0.133701
vn -0.384946 -0.917877 0.096530
vn -0.384946 -0.917877 0.096530
vn -0.384946 -0.917877 0.096530
vn -0.384946 -0.917877 0.096530
vn -0.430135 -0.891969 0.139196
vn -0.418389 -0.897898 0.136854
vn -0.418498 -0.897844 0.136876
vn -0.430135 -0.891969 0.139196
vn 0.445203 0.895422 -0.003753
vn 0.425621 0.904902 -0.000104
vn 0.425621 0.904902 -0.000104
vn 0.444805 0.895620 -0.003679
vn -0.437458 -0.898068 0.045882
vn -0.449609 -0.891906 0.048522
vn -0.449609 -0.891906 0.048522
vn -0.437564 -0.898015 0.045905
vn 0.393307 0.905521 -0.159191
vn 0.412256 0.896274 -0.163515
vn 0.411917 0.896444 -0.163438
vn 0.393307 0.905521 -0.159191
vn -0.853314 -0.485602 0.189855
vn -0.853314 -0.485602 0.189855
vn -0.853314 -0.485602 0.189855
vn -0.853314 -0.485602 0.189855
vn -0.095003 0.161226 0.982334
vn -0.095003 0.161226 0.982334
vn -0.095003 0.161226 0.982334
vn -0.095003 0.161226 0.982334
vn 0.576635 0.805857 -0.134488
vn 0.576635 0.805857 -0.134488
vn 0.576635 0.805857 -0.134488
vn 0.576635 0.805857 -0.134488
vn -0.531139 0.152650 -0.833420
vn -0.531139 0.152650 -0.833420
vn -0.531139 0.152650 -0.833420
vn -0.531139 0.152650 -0.833420
vn 0.249612 0.966079 -0.066217
vn 0.249612 0.966079 -0.066217
vn 0.249612 0.966079 -0.066217
vn 0.249612 0.966079 -0.066217
vn 0.510686 -0.141237 0.848087
vn 0.510686 -0.141237 0.848087
vn 0.510686 -0.141237 0.848087
vn 0.510686 -0.141237 0.848087
vn 0.186685 -0.982037 -0.027429
vn 0.186685 -0.982037 -0.027429
vn 0.186685 -0.982037 -0.027429
vn 0.186685 -0.982037 -0.027429
vn 0.162019 -0.191246 -0.968078
vn 0.162019 -0.191246 -0.968078
vn 0.162019 -0.191246 -0.968078
vn 0.162019 -0.191246 -0.968078
vn -0.625097 -0.766734 0.146192
vn -0.625097 -0.766734 0.146192
vn -0.625097 -0.766734 0.146192
vn -0.625097 -0.766734 0.146192
vn 0.213938 0.012210 0.976771
vn 0.213938 0.012210 0.976771
vn 0.213938 0.012210 0.976771
vn 0.213938 0.012210 0.976771
vn 0.625098 0.766734 -0.146191
vn 0.625098 0.766734 -0.146191
vn 0.625098 0.766734 -0.146191
vn 0.625098 0.766734 -0.146191
vn -0.213938 -0.012209 -0.976771
vn -0.213938 -0.012209 -0.976771
vn -0.213938 -0.012209 -0.976771
vn -0.213938 -0.012209 -0.976771
vn 0.184983 0.981241 -0.054289
vn 0.184983 0.981241 -0.054289
vn 0.184983 0.981241 -0.054289
vn 0.184983 0.981241 -0.054289
vn 0.207449 0.015440 0.978124
vn 0.207449 0.015440 0.978124
vn 0.207449 0.015440 0.978124
vn 0.207449 0.015440 0.978124
vn -0.184984 -0.981241 0.054290
vn -0.184984 -0.981241 0.054290
vn -0.184984 -0.981241 0.054290
vn -0.184984 -0.981241 0.054290
vn -0.207449 -0.015439 -0.978124
vn -0.207449 -0.015439 -0.978124
vn -0.207449 -0.015439 -0.978124
vn -0.207449 -0.015439 -0.978124
vn -0.548651 -0.825796 0.130548
vn -0.548651 -0.825796 0.130548
vn -0.548651 -0.825796 0.130548
vn -0.548651 -0.825796 0.130548
vn 0.212655 0.012849 0.977043
vn 0.212655 0.012849 0.977043
vn 0.212655 0.012849 0.977043
vn 0.212655 0.012849 0.977043
vn 0.548651 0.825796 -0.130547
vn 0.548651 0.825796 -0.130547
vn 0.548651 0.825796 -0.130547
vn 0.548651 0.825796 -0.130547
vn -0.212654 -0.012849 -0.977043
vn -0.212654 -0.012849 -0.977043
vn -0.212654 -0.012849 -0.977043
vn -0.212654 -0.012849 -0.977043
vn 0.283904 0.955893 -0.075279
vn 0.283904 0.955893 -0.075279
vn 0.283904 0.955893 -0.075279
vn 0.283904 0.955893 -0.075279
vn 0.208826 0.014755 0.977841
vn 0.208826 0.014755 0.977841
vn 0.208826 0.014755 0.977841
vn 0.208826 0.014755 0.977841
vn -0.283904 -0.955893 0.075281
vn -0.283904 -0.955893 0.075281
vn -0.283904 -0.955893 0.075281
vn -0.283904 -0.955893 0.075281
vn -0.208825 -0.014755 -0.977842
vn -0.208825 -0.014755 -0.977842
vn -0.208825 -0.014755 -0.977842
vn -0.208825 -0.014755 -0.977842
vn -0.879981 0.438084 0.183618
vn -0.879981 0.438084 0.183618
vn -0.879981 0.438084 0.183618
vn -0.879981 0.438084 0.183618
vn 0.118343 0.056882 0.991342
vn 0.209924 0.011907 0.977645
vn 0.209924 0.011907 0.977645
vn 0.118343 0.056882 0.991342
vn 0.879981 -0.438084 -0.183618
vn 0.879981 -0.438084 -0.183618
vn 0.879981 -0.438084 -0.183618
vn 0.879981 -0.438084 -0.183618
vn -0.198613 0.011804 -0.980007
vn -0.301200 0.063486 -0.951445
vn -0.301200 0.063486 -0.951445
vn -0.198613 0.011804 -0.980007
vn 0.464413 0.885588 -0.007372
vn 0.445203 0.895422 -0.003753
vn 0.444805 0.895620 -0.003679
vn 0.464413 0.885588 -0.007372
vn 0.209924 0.011907 0.977645
vn 0.209924 0.011907 0.977645
vn 0.299281 -0.033194 0.953588
vn 0.299281 -0.033194 0.953588
vn 0.422292 0.898500 -0.119863
vn 0.422292 0.898500 -0.119863
vn 0.963279 0.155102 -0.219171
vn 0.963279 0.155102 -0.219171
vn -0.093243 -0.040042 -0.994838
vn -0.198613 0.011804 -0.980007
vn -0.198613 0.011804 -0.980007
vn -0.093243 -0.040042 -0.994838
vn 0.411917 0.896444 -0.163438
vn 0.412256 0.896274 -0.163515
vn 0.430910 0.886668 -0.167740
vn 0.430910 0.886668 -0.167740
vn 0.081930 -0.161935 -0.983394
vn -0.214373 -0.021315 -0.976519
vn -0.214373 -0.021315 -0.976519
vn 0.081930 -0.161935 -0.983394
vn -0.425256 -0.904040 0.043240
vn -0.437458 -0.898068 0.045882
vn -0.437564 -0.898015 0.045905
vn -0.425256 -0.904040 0.043240
vn 0.012961 -0.117486 -0.992990
vn -0.209203 -0.010358 -0.977817
vn -0.209181 -0.010369 -0.977822
vn 0.012961 -0.117486 -0.992990
vn -0.425367 -0.898959 0.104577
vn -0.425367 -0.898959 0.104577
vn -0.425633 -0.898826 0.104632
vn -0.425633 -0.898826 0.104632
vn 0.212592 0.017512 0.976984
vn 0.212569 0.017524 0.976989
vn 0.429314 -0.094455 0.898203
vn 0.429314 -0.094455 0.898203
vn -0.418498 -0.897844 0.136876
vn -0.418389 -0.897898 0.136854
vn -0.406608 -0.903648 0.134497
vn -0.406608 -0.903648 0.134497
vn 0.214373 0.021315 0.976519
vn 0.214373 0.021315 0.976519
vn 0.462312 -0.107713 0.880151
vn 0.462312 -0.107713 0.880151
s off
g group1pasted__sword_geo
usemtl sword_initialShadingGroup
f 1/1/1 2/2/2 3/3/3 4/4/4
f 5/5/5 6/6/6 7/7/7 8/8/8
f 9/9/9 10/10/10 11/11/11 12/12/12
f 13/13/13 14/14/14 15/15/15 16/16/16
f 17/17/17 18/18/18 19/19/19 20/20/20
f 21/21/21 22/22/22 23/23/23 24/24/24
f 25/25/25 26/26/26 27/27/27 28/28/28
f 13/29/29 16/30/30 29/31/31 30/32/32
f 16/33/33 15/34/34 31/35/35 29/36/36
f 15/37/37 14/38/38 32/39/39 31/40/40
f 29/41/41 31/42/42 17/43/43 22/44/44
f 33/45/45 34/46/46 23/47/47 20/48/48
f 35/49/49 36/50/50 37/51/51 38/52/52
f 26/53/53 25/54/54 39/55/55 40/56/56
f 31/42/57 32/57/58 18/58/59 17/43/60
f 41/59/61 33/45/62 20/48/63 19/60/64
f 30/61/65 29/41/66 22/44/67 21/62/68
f 34/46/69 42/63/70 24/64/71 23/47/72
f 22/44/73 17/43/74 43/65/75 44/66/76
f 17/17/77 20/20/78 45/67/79 43/68/80
f 20/48/81 23/47/82 46/69/83 45/70/84
f 23/23/85 22/22/86 44/71/87 46/72/88
f 38/52/89 37/51/90 47/73/91 48/74/92
f 37/75/93 40/76/94 49/77/95 47/78/96
f 40/56/97 39/55/98 50/79/99 49/80/100
f 39/81/101 38/82/102 48/83/103 50/84/104
f 44/66/105 43/65/106 51/85/107 52/86/108
f 43/68/109 45/67/110 53/87/111 51/88/112
f 45/70/113 46/69/114 54/89/115 53/90/116
f 46/72/117 44/71/118 52/91/119 54/92/120
f 48/74/121 47/73/122 55/93/123 56/94/124
f 47/78/125 49/77/126 57/95/127 55/96/128
f 49/80/129 50/79/130 58/97/131 57/98/132
f 50/84/133 48/83/134 56/99/135 58/100/136
f 52/86/137 51/85/138 2/101/139 1/102/140
f 51/88/141 53/87/142 3/103/143 2/104/144
f 53/90/145 54/89/146 4/105/147 3/106/148
f 54/92/149 52/91/150 1/107/151 4/108/152
f 56/94/153 55/93/154 10/109/155 9/110/156
f 55/96/157 57/95/158 11/111/159 10/112/160
f 57/98/161 58/97/162 12/113/163 11/114/164
f 58/100/165 56/99/166 9/115/167 12/116/168
f 34/117/169 33/118/170 6/119/171 5/120/172
f 33/121/173 41/122/174 7/123/175 6/124/176
f 36/125/177 35/126/178 59/127/179 60/128/180
f 42/129/181 34/130/182 5/131/183 8/132/184
f 36/50/185 41/59/186 19/60/187 37/51/188
f 7/123/189 41/122/190 36/133/191 60/134/192
f 8/8/193 7/7/194 60/135/195 59/136/196
f 35/137/197 42/129/198 8/132/199 59/138/200
f 24/64/201 42/63/202 35/49/203 38/52/204
f 39/81/205 21/21/206 24/24/207 38/82/208
f 25/54/209 30/61/210 21/62/211 39/55/212
f 28/139/213 13/29/214 30/32/215 25/140/216
f 28/141/217 27/142/218 14/14/219 13/13/220
f 32/39/221 14/38/222 27/143/223 26/144/224
f 18/58/225 32/57/226 26/53/227 40/56/228
f 19/19/229 18/18/230 40/76/231 37/75/232
