#File written by RizomUV 2022.0.11.g5424fda. Compilation :Nov 24 2021,04:16:21
mtllib ?????, ?????, ???????:mtl
#begin vertices
v -15257.2 0 15053.8
v -15257.2 0 -14946.2
v 14742.8 0 -14946.2
v 14742.8 0 15053.8
v -15257.2 500 15053.8
v 14742.8 500 15053.8
v 14742.8 500 -14946.2
v -15257.2 500 -14946.2
v -14693.81 503.5276 10113.2
v -14693.81 503.5276 -14438.8
v -14693.81 6503.527 -14438.8
v -14693.81 6503.527 10113.2
v -14693.81 6503.527 12833
v -14693.81 6503.527 14701.89
v -14693.81 503.5276 14701.89
v -14693.81 503.5276 12833
v -14735.56 503.5276 -14426.91
v 14357.47 503.5276 -14426.91
v 14357.47 6503.527 -14426.91
v -14735.56 6503.527 -14426.91
v 14333.06 503.5276 14630.47
v -14753.04 503.5276 14630.47
v -14753.04 6503.527 14630.47
v 14333.06 6503.527 14630.47
v 9314.871 460.9648 -8588.248
v 14314.87 460.9648 -8588.248
v 14314.87 6460.965 -8588.248
v 9314.871 6460.965 -8588.248
v 14314.87 460.9648 -9088.248
v 9314.871 460.9648 -9088.248
v 9314.871 6460.965 -9088.248
v 14314.87 6460.965 -9088.248
v -14676.98 460.9648 9320.139
v -9193.199 460.9648 9320.139
v -9193.199 6460.965 9320.139
v -14676.98 6460.965 9320.139
v -9193.199 460.9648 4321.945
v -9193.199 6460.965 4321.945
v -14676.98 460.9648 4321.945
v -14676.98 6460.965 4321.945
v -3595.314 460.9648 14619.3
v -3595.314 460.9648 -503.8496
v -3595.314 6460.965 -503.8496
v -3595.314 6460.965 14619.3
v -4095.314 460.9648 -503.8496
v -4095.314 460.9648 14619.3
v -4095.314 6460.965 14619.3
v -4095.314 6460.965 -503.8496
v -8599.051 460.9648 -506.8404
v -3599.05 460.9648 -506.8404
v -3599.05 6460.965 -506.8404
v -8599.051 6460.965 -506.8404
v -3599.05 460.9648 -1006.84
v -3599.05 6460.965 -1006.84
v -8599.051 460.9648 -1006.84
v -8599.051 6460.965 -1006.84
v -8597.951 460.9648 -507.7051
v -8597.951 460.9648 -5507.705
v -8597.951 6460.965 -5507.705
v -8597.951 6460.965 -507.7051
v -9097.951 460.9648 -5507.705
v -9097.951 6460.965 -5507.705
v -9097.951 460.9648 -507.7051
v -9097.951 6460.965 -507.7051
v -8599.051 460.9648 -5006.843
v -3599.05 460.9648 -5006.843
v -3599.05 6460.965 -5006.843
v -8599.051 6460.965 -5006.843
v -3599.05 460.9648 -5506.843
v -3599.05 6460.965 -5506.843
v -8599.051 460.9648 -5506.843
v -8599.051 6460.965 -5506.843
v -14676.98 460.9648 -10022.07
v -3588.11 460.9648 -10022.07
v -3588.11 6460.965 -10022.07
v -14676.98 6460.965 -10022.07
v -3588.11 460.9648 -10522.07
v -3588.11 6460.965 -10522.07
v -14676.98 460.9648 -10522.07
v -14676.98 6460.965 -10522.07
v 3390.17 460.9648 -3333.013
v 3390.17 460.9648 -14421.89
v 3390.17 6460.965 -14421.89
v 3390.17 6460.965 -3333.013
v 2890.17 460.9648 -14421.89
v 2890.17 460.9648 -3333.013
v 2890.17 6460.965 -3333.013
v 2890.17 6460.965 -14421.89
v 2891.675 460.9648 -2835.963
v 7891.675 460.9648 -2835.963
v 7891.675 6460.965 -2835.963
v 2891.675 6460.965 -2835.963
v 7891.675 460.9648 -3335.963
v 2891.675 460.9648 -3335.963
v 2891.675 6460.965 -3335.963
v 7891.675 6460.965 -3335.963
v 8334.268 460.9648 4698.209
v 8334.268 460.9648 -3335.112
v 8334.268 6460.965 -3335.112
v 8334.268 6460.965 4698.209
v 7834.267 460.9648 -3335.112
v 7834.267 6460.965 -3335.112
v 7834.268 460.9648 4698.209
v 7834.268 6460.965 4698.209
v 2885.795 460.9648 10708.19
v 8315.699 460.9648 10708.19
v 8315.699 6460.965 10708.19
v 2885.795 6460.965 10708.19
v 8315.699 460.9648 4692.092
v 8315.699 6460.965 4692.092
v 2885.795 460.9648 4692.092
v 2885.795 6460.965 4692.092
v 14381.67 503.5276 -9923.772
v 14381.67 503.5276 14628.23
v 14381.67 6503.527 14628.23
v 14381.67 6503.527 -9923.775
v 14381.67 6503.527 -12643.57
v 14381.67 6503.527 -14512.46
v 14381.67 503.5276 -14512.46
v 14381.67 503.5276 -12643.57
#end vertices

#begin 180 textures vertices 
vt 0.4476803 0.8993966 0
vt 0.00390625 0.8993966 0
vt 0.00390625 0.4556226 0
vt 0.4476803 0.4556226 0
vt 0.4476803 0.4476803 0
vt 0.00390625 0.4476803 0
vt 0.00390625 0.00390625 0
vt 0.4476803 0.00390625 0
vt 0.7544542 0.3670909 0
vt 0.7544542 0.00390625 0
vt 0.843209 0.00390625 0
vt 0.843209 0.3670909 0
vt 0.9290324 0.6514236 0
vt 0.9013869 0.6514236 0
vt 0.9013869 0.5626688 0
vt 0.9290324 0.5626688 0
vt 0.4566177 0.434264 0
vt 0.4566177 0.00390625 0
vt 0.5453725 0.00390625 0
vt 0.5453725 0.434264 0
vt 0.5558965 0.4341615 0
vt 0.5558965 0.00390625 0
vt 0.6446513 0.00390625 0
vt 0.6446513 0.4341615 0
vt 0.4114454 0.9960937 0
vt 0.3374831 0.9960937 0
vt 0.3374831 0.9073389 0
vt 0.984235 0.3613322 0
vt 0.3280512 0.9960937 0
vt 0.9768388 0.2725774 0
vt 0.2540889 0.9073389 0
vt 0.3280512 0.9073389 0
vt 0.7028292 0.6391495 0
vt 0.7028292 0.4561259 0
vt 0.7769386 0.5048998 0
vt 0.7476952 0.5650455 0
vt 0.8744902 0.4556075 0
vt 0.8296242 0.5297116 0
vt 0.8744902 0.6386311 0
vt 0.8003808 0.5898572 0
vt 0.4566177 0.665915 0
vt 0.4566177 0.4422063 0
vt 0.5453725 0.4422063 0
vt 0.9921773 0.4580293 0
vt 0.7028292 0.8708002 0
vt 0.9847811 0.3692745 0
vt 0.791584 0.6470915 0
vt 0.791584 0.8708002 0
vt 0.9594646 0.5547265 0
vt 0.9371272 0.5626688 0
vt 0.8855023 0.4659717 0
vt 0.9594646 0.4659717 0
vt 0.5400119 0.8895241 0
vt 0.9445235 0.6514236 0
vt 0.6139743 0.8895241 0
vt 0.6139743 0.978279 0
vt 0.244657 0.9960937 0
vt 0.9847811 0.4659716 0
vt 0.1706947 0.9073389 0
vt 0.9762927 0.5547265 0
vt 0.08730047 0.9073389 0
vt 0.9921773 0.5547265 0
vt 0.9688965 0.4659716 0
vt 0.1612628 0.9960938 0
vt 0.9594646 0.4580294 0
vt 0.9688965 0.3692745 0
vt 0.8855023 0.3692745 0
vt 0.9594646 0.3692745 0
vt 0.4566177 0.8458314 0
vt 0.9762927 0.4580293 0
vt 0.5305801 0.8458314 0
vt 0.5305801 0.9345863 0
vt 0.802108 0.9828215 0
vt 0.9847811 0.00390625 0
vt 0.8908629 0.8187898 0
vt 0.8908629 0.9828215 0
vt 0.9583725 0.00390625 0
vt 0.9921773 0.09266106 0
vt 0.9583725 0.167938 0
vt 0.8696176 0.167938 0
vt 0.8908629 0.6468156 0
vt 0.8908629 0.8108475 0
vt 0.802108 0.8108475 0
vt 0.802108 0.6468156 0
vt 0.4566177 0.8378891 0
vt 0.4566177 0.6738573 0
vt 0.5453725 0.6738573 0
vt 0.5453725 0.8378891 0
vt 0.07786859 0.9960937 0
vt 0.00390625 0.9960937 0
vt 0.00390625 0.9073389 0
vt 0.9683504 0.3613322 0
vt 0.7291377 0.9674973 0
vt 0.9609542 0.2725774 0
vt 0.6551754 0.8787425 0
vt 0.7291377 0.8787425 0
vt 0.5558965 0.6877114 0
vt 0.9688965 0.00390625 0
vt 0.6446514 0.5688787 0
vt 0.6446514 0.6877114 0
vt 0.6446514 0.4421038 0
vt 0.9762927 0.09266106 0
vt 0.6446514 0.5609364 0
vt 0.5558965 0.5609364 0
vt 0.9499393 0.2646351 0
vt 0.5558965 0.7846466 0
vt 0.8696176 0.1758803 0
vt 0.5558965 0.8815818 0
vt 0.8696176 0.2725774 0
vt 0.6446514 0.6956537 0
vt 0.6446514 0.7925889 0
vt 0.9499393 0.3613322 0
vt 0.7439302 0.003906294 0
vt 0.7439302 0.367091 0
vt 0.6551754 0.367091 0
vt 0.6551754 0.00390625 0
vt 0.9885997 0.2646351 0
vt 0.9609542 0.2646351 0
vt 0.9609542 0.1758803 0
vt 0.9885997 0.1758803 0
vt 0.4114454 0.9073389 0
vt 0.984235 0.2725774 0
vt 0.2540889 0.9960937 0
vt 0.9768388 0.3613322 0
vt 0.5558965 0.5688787 0
vt 0.9688965 0.09266106 0
vt 0.9762927 0.00390625 0
vt 0.5558965 0.4421038 0
vt 0.07786859 0.9073389 0
vt 0.9683504 0.2725774 0
vt 0.6551754 0.9674973 0
vt 0.9609542 0.3613322 0
vt 0.9499393 0.1758803 0
vt 0.6446514 0.8815818 0
vt 0.8696176 0.2646351 0
vt 0.6446514 0.7846466 0
vt 0.5558965 0.6956537 0
vt 0.8696176 0.3613322 0
vt 0.9499393 0.2725774 0
vt 0.5558965 0.7925889 0
vt 0.5453725 0.665915 0
vt 0.9921773 0.3692745 0
vt 0.7028292 0.6470915 0
vt 0.9847811 0.4580293 0
vt 0.8855023 0.5547265 0
vt 0.9371272 0.6514236 0
vt 0.9445235 0.5626688 0
vt 0.5400119 0.978279 0
vt 0.244657 0.9073389 0
vt 0.9762927 0.4659716 0
vt 0.1706947 0.9960937 0
vt 0.9847811 0.5547265 0
vt 0.9921773 0.4659716 0
vt 0.08730047 0.9960937 0
vt 0.1612628 0.9073389 0
vt 0.9688965 0.5547265 0
vt 0.8855023 0.4580294 0
vt 0.9688965 0.4580293 0
vt 0.9762927 0.3692745 0
vt 0.4566177 0.9345863 0
vt 0.802108 0.8187898 0
vt 0.9847811 0.09266106 0
vt 0.9921773 0.00390625 0
vt 0.8696176 0.00390625 0
vt 0.6943408 0.8188073 0
vt 0.853733 0.4476803 0
vt 0.6943408 0.3750333 0
vt 0.6784562 0.8188073 0
vt 0.6551754 0.3750333 0
vt 0.6784562 0.3750333 0
vt 0.853733 0.00390625 0
vt 0.6551754 0.8188073 0
vt 0.6869446 0.8188073 0
vt 0.8611293 0.4476803 0
vt 0.8611293 0.00390625 0
vt 0.6625716 0.8188073 0
vt 0.6625716 0.3750333 0
vt 0.67106 0.3750333 0
vt 0.6869446 0.3750333 0
vt 0.67106 0.8188073 0
#end 180 textures vertices 

#begin 54 normals 
vn -0.5774 -0.5774 0.5774
vn -0.5774 -0.5774 -0.5774
vn 0.5774 -0.5774 -0.5774
vn 0.5774 -0.5774 0.5774
vn -0.5774 0.5774 0.5774
vn 0.5774 0.5774 0.5774
vn 0.5774 0.5774 -0.5774
vn -0.5774 0.5774 -0.5774
vn 1 0 -0
vn 0 0 1
vn -0 0 -1
vn -0.7071 0 0.7071
vn 0 0 1
vn 0 0 -1
vn -0.7071 0 -0.7071
vn -0.7071 0 0.7071
vn 0.7071 0 0.7071
vn 0.7071 0 -0.7071
vn -0.7071 0 -0.7071
vn 0.7071 0 0.7071
vn 1 0 -0
vn -1 0 0
vn -0.7071 0 0.7071
vn 0 0 1
vn 0.7071 0 0.7071
vn 0.7071 0 -0.7071
vn 0 0 -1
vn 0.7071 0 0.7071
vn 0.7071 0 -0.7071
vn -0.7071 0 -0.7071
vn -0.7071 0 0.7071
vn 0 0 1
vn 0.7071 0 0.7071
vn 0.7071 0 -0.7071
vn 0 0 -1
vn 0 0 1
vn 0.7071 0 0.7071
vn 0.7071 0 -0.7071
vn 0 0 -1
vn 1 0 -0
vn -1 0 0
vn -0.7071 0 0.7071
vn 0 0 1
vn 0 0 -1
vn -0.7071 0 -0.7071
vn 1 0 -0
vn 0.7071 0 -0.7071
vn -0.7071 0 -0.7071
vn -1 0 0
vn -0.7071 0 0.7071
vn 0.7071 0 0.7071
vn 0.7071 0 -0.7071
vn -0.7071 0 -0.7071
vn -1 0 0
#end 54 normals 

#begin 47 faces
o Box001
usemtl wire_088088225
g Box001
s 2
f 1/1/1 2/2/2 3/3/3 4/4/4 
s 4
f 5/5/5 6/6/6 7/7/7 8/8/8 
s 8
f 1/167/1 4/165/4 6/173/6 5/179/5 
s 16
f 4/166/4 3/171/3 7/175/7 6/174/6 
s 32
f 3/172/3 2/169/2 8/177/8 7/176/7 
s 64
f 2/170/2 1/168/1 5/180/5 8/178/8 
o Box003
usemtl wire_141007058
g Box003
s 16
f 9/9/9 10/10/9 11/11/9 12/12/9 
f 13/13/9 14/14/9 15/15/9 16/16/9 
o Box004
usemtl wire_141007058
g Box004
s 16
f 17/17/10 18/18/10 19/19/10 20/20/10 
o Box005
usemtl wire_141007058
g Box005
s 64
f 21/21/11 22/22/11 23/23/11 24/24/11 
o Box006
usemtl wire_154215229
g Box006
s 8
f 25/25/12 26/26/13 27/27/13 28/121/12 
s 32
f 29/29/14 30/123/15 31/31/15 32/32/14 
s 64
f 30/30/15 25/122/12 28/28/12 31/124/15 
o Box009
usemtl wire_154215229
g Box009
s 8
f 33/33/16 34/34/17 35/35/17 36/36/16 
s 16
f 34/34/17 37/37/18 38/38/18 35/35/17 
s 32
f 37/37/18 39/39/19 40/40/19 38/38/18 
s 64
f 39/39/19 33/33/16 36/36/16 40/40/19 
o Box010
usemtl wire_154215229
g Box010
s 8
f 41/41/20 42/42/21 43/43/21 44/141/20 
s 32
f 45/45/22 46/143/23 47/47/23 48/48/22 
s 64
f 46/46/23 41/142/20 44/44/20 47/144/23 
o Box011
usemtl wire_154215229
g Box011
s 8
f 49/49/24 50/145/25 51/51/25 52/52/24 
s 16
f 50/50/25 53/147/26 54/54/26 51/146/25 
s 32
f 53/53/26 55/55/27 56/56/27 54/148/26 
o Box012
usemtl wire_154215229
g Box012
s 8
f 57/57/28 58/151/29 59/59/29 60/149/28 
s 16
f 58/58/29 61/153/30 62/62/30 59/152/29 
s 32
f 61/61/30 63/155/31 64/64/31 62/154/30 
s 64
f 63/63/31 57/150/28 60/60/28 64/156/31 
o Box013
usemtl wire_154215229
g Box013
s 8
f 65/65/32 66/157/33 67/67/33 68/68/32 
s 16
f 66/66/33 69/159/34 70/70/34 67/158/33 
s 32
f 69/69/34 71/71/35 72/72/35 70/160/34 
o Box014
usemtl wire_154215229
g Box014
s 8
f 73/73/36 74/161/37 75/75/37 76/76/36 
s 16
f 74/74/37 77/163/38 78/78/38 75/162/37 
s 32
f 77/77/38 79/79/39 80/80/39 78/164/38 
o Box015
usemtl wire_154215229
g Box015
s 8
f 81/81/40 82/82/40 83/83/40 84/84/40 
s 32
f 85/85/41 86/86/41 87/87/41 88/88/41 
o Box016
usemtl wire_154215229
g Box016
s 8
f 89/89/42 90/90/43 91/91/43 92/129/42 
s 32
f 93/93/44 94/131/45 95/95/45 96/96/44 
s 64
f 94/94/45 89/130/42 92/92/42 95/132/45 
o Box017
usemtl wire_154215229
g Box017
s 8
f 97/97/46 98/125/47 99/99/47 100/100/46 
s 16
f 98/98/47 101/127/48 102/102/48 99/126/47 
s 32
f 101/101/48 103/103/49 104/104/49 102/128/48 
o Box018
usemtl wire_154215229
g Box018
s 8
f 105/105/50 106/135/51 107/107/51 108/133/50 
s 16
f 106/106/51 109/137/52 110/110/52 107/136/51 
s 32
f 109/109/52 111/139/53 112/112/53 110/138/52 
s 64
f 111/111/53 105/134/50 108/108/50 112/140/53 
o Box019
usemtl wire_141007058
g Box019
s 16
f 113/113/54 114/114/54 115/115/54 116/116/54 
f 117/117/54 118/118/54 119/119/54 120/120/54 
#end 47 faces

#ZOMPROPERTIES_04{
#ZOMPROPERTIES_04 table {Mesh table {SymPlane table {Point vector3d 0 0 0 Normal vector3d 1 0 0 Threshold double 0.01 
#ZOMPROPERTIES_04 Enabled bool false EdgeID int -1 SymEdgeID int -1 UPos double 0.5 LocalMode bool false } RootGroup C
#ZOMPROPERTIES_04 SubMeshGroup {Children table {Tile_0_0 CSubMeshGroup {Children table {} BBoxUV box3d 0 0 0 0 0 0 BBo
#ZOMPROPERTIES_04 x3D box3d 0 0 0 0 0 0 Area3D double 0 AreaUV double 0.80093 IsRoot bool false TopoStable table {Sele
#ZOMPROPERTIES_04 cted bool false Box box3d 0 1 0 1 0 1 U int 0 V int 0 NU int 0 NV int 0 Tiling vector3d 1 1 1 TileRa
#ZOMPROPERTIES_04 tioMode string "1:1" Pack table {BoxFrameLocked bool false BoxFrameEdit bool false } } IsTile bool t
#ZOMPROPERTIES_04 rue PolyIDs ints { 21 26 31 24 12 19 37 28 39 7 46 4 2 5 3 11 10 23 25 36 35 29 22 27 20 43 41 44 42
#ZOMPROPERTIES_04  38 40 30 32 34 33 18 17 13 14 15 16 6 45 9 8 1 0 } } } BBoxUV box3d 0 0 0 0 0 0 BBox3D box3d 0 0 0 
#ZOMPROPERTIES_04 0 0 0 Area3D double 0 AreaUV double 0.0333333 IsRoot bool true TopoStable table {Selected bool false
#ZOMPROPERTIES_04  Box box3d 0 1 0 1 0 1 U int 0 V int 0 NU int 1 NV int 1 Tiling vector3d 1 1 1 TileRatioMode string 
#ZOMPROPERTIES_04 "1:1" Pack table {Rotate table {Mode int 2 Min double 0 Max double 90 Step double 0 } PaddingSize do
#ZOMPROPERTIES_04 uble 0.0078125 MarginSize double 0.00390625 Resolution int 256 MapResolution int 2048 Scaling table 
#ZOMPROPERTIES_04 {TexelDensity double 1024 Mode int 0 } LayoutScalingMode int 2 MaxMutations int 1 } } IsTile bool fa
#ZOMPROPERTIES_04 lse PolyIDs ints { } } Maps table {Density table {PrimType string "Polygon" Size int 1 DefaultValue 
#ZOMPROPERTIES_04 double 1 ScaleType string "Log" MergeMode string "Average" MinValue double 0.1 MaxValue double 4 Dat
#ZOMPROPERTIES_04 a doubles { r 47 1 } } Pin table {PrimType string "Vertex" Size int 1 DefaultValue double 0 ScaleTyp
#ZOMPROPERTIES_04 e string "Normalized" MergeMode string "Max" MinValue double 0 MaxValue double 1 Data doubles { r 18
#ZOMPROPERTIES_04 0 0 } } Protect table {PrimType string "Vertex" Size int 1 DefaultValue double 0 ScaleType string "N
#ZOMPROPERTIES_04 ormalized" MergeMode string "Average" MinValue double -1 MaxValue double 1 Data doubles { r 180 0 } 
#ZOMPROPERTIES_04 } } } }
#ZOMPROPERTIES_04}


#ZOMSCENE_01{
#ZOMSCENE_01 CScene {Settings table {AxisSystem table {UpVector string "y" } Unit string "cm" } }
#ZOMSCENE_01}

#begin 0 fatal error vertex (that RizomUV cannot handle)
#end 0 fatal error vertex (that RizomUV cannot handle)

#begin 0 error vertex
#end 0 error vertex
